<?xml version="1.0" encoding="UTF-8"?>
<svg id="Layer_2" data-name="Layer 2" xmlns="http://www.w3.org/2000/svg" viewBox="0 0 789.76 240.01">
  <defs>
    <style>
      .cls-1 {
        fill: #171e44;
      }

      .cls-2 {
        fill: #443cef;
      }
    </style>
  </defs>
  <g id="Layer_1-2" data-name="Layer 1">
    <g>
      <g>
        <path class="cls-2" d="M293.78,210.77h-4.24l-10-27.77h4.2l6.21,17.84c.88,2.65,1.47,4.55,1.77,5.69h.08c.47-1.77,1.12-3.76,1.95-5.97l6.37-17.56h3.92l-10.25,27.77Z"/>
        <path class="cls-2" d="M319.61,207.98c-1.85,2.1-4.26,3.15-7.23,3.15-6.12,0-9.18-3.47-9.18-10.41,0-3.08.89-5.63,2.67-7.63,1.85-2.09,4.28-3.13,7.29-3.13,2.79,0,4.97.78,6.55,2.35,1.74,1.75,2.61,4.39,2.61,7.9,0,3.13-.9,5.73-2.71,7.78ZM312.82,193.03c-1.61,0-2.94.59-4,1.77-1.21,1.33-1.81,3.18-1.81,5.56,0,5.1,1.94,7.66,5.81,7.66,1.63,0,2.96-.62,3.98-1.85,1.14-1.37,1.71-3.29,1.71-5.77,0-4.92-1.9-7.37-5.69-7.37Z"/>
        <path class="cls-2" d="M337.64,210.65c-1.25.29-2.62.44-4.12.44-2.06,0-3.5-.47-4.3-1.41-.78-.9-1.17-2.47-1.17-4.72v-11.75h-4.2v-2.89h4.2v-6.63l3.7-1.02v7.65h5.73v2.89h-5.73v10.45c0,1.67.21,2.81.62,3.4.4.59,1.17.88,2.31.88.94,0,1.8-.11,2.59-.34l.36,3.05Z"/>
        <path class="cls-2" d="M352.66,193.61c-4.26-.76-6.39,2.21-6.39,8.92v8.24h-3.7v-20.45h3.58c0,1.69-.15,3.31-.44,4.86h.08c1.17-3.84,3.51-5.59,7.03-5.22l-.16,3.66Z"/>
        <path class="cls-2" d="M372.23,200.64h-13.38c-.12,5,2.04,7.49,6.47,7.49,2.05,0,4-.39,5.85-1.19l.52,2.91c-2.12.84-4.47,1.27-7.07,1.27-6.39,0-9.58-3.5-9.58-10.49,0-3.12.81-5.67,2.43-7.63,1.69-2.04,3.95-3.05,6.79-3.05s4.77.82,6.19,2.47c1.27,1.49,1.91,3.46,1.91,5.93,0,.71-.04,1.47-.12,2.29ZM368.58,198.01c.04-1.65-.36-2.94-1.19-3.88-.8-.92-1.94-1.39-3.4-1.39-2.89,0-4.57,1.75-5.04,5.26h9.62Z"/>
        <path class="cls-2" d="M398.87,210.77c0-1.78.11-3.22.34-4.32h-.08c-1.34,3.12-3.74,4.68-7.21,4.68-4.08,0-6.13-2.18-6.13-6.53v-14.28h3.66v13.18c0,3.07,1.17,4.6,3.5,4.6,1.69,0,3.08-.76,4.18-2.29,1.08-1.51,1.63-3.41,1.63-5.69v-9.8h3.7v20.45h-3.58Z"/>
        <path class="cls-2" d="M418.96,209.28c-1.58,1.23-3.68,1.85-6.31,1.85-1.79,0-3.31-.17-4.54-.52l.34-3.29c1.34.55,2.85.82,4.52.82,1.33,0,2.4-.28,3.21-.84.82-.56,1.23-1.33,1.23-2.29s-.5-1.78-1.49-2.33c-.36-.19-1.45-.58-3.25-1.17-1.5-.47-2.59-1.02-3.27-1.65-.99-.9-1.49-2.16-1.49-3.78,0-1.82.68-3.28,2.03-4.38,1.46-1.17,3.5-1.75,6.13-1.75,1.26,0,2.57.13,3.94.4l-.28,3.05c-1.33-.42-2.66-.62-4-.62-2.67,0-4,.97-4,2.91,0,.99.5,1.77,1.51,2.33.38.21,1.47.62,3.28,1.21,3.19,1.06,4.78,2.85,4.78,5.36,0,1.9-.78,3.46-2.33,4.68Z"/>
        <path class="cls-2" d="M430.44,185.56c-.48.46-1.06.68-1.75.68s-1.27-.23-1.75-.68c-.48-.46-.72-1.02-.72-1.69s.24-1.26.72-1.73c.48-.47,1.06-.7,1.75-.7s1.27.23,1.75.7c.48.47.72,1.04.72,1.73s-.24,1.22-.72,1.69ZM426.84,210.77v-20.45h3.7v20.45h-3.7Z"/>
        <path class="cls-2" d="M450.53,210.77v-13.16c0-3.08-1.17-4.62-3.5-4.62-1.67,0-3.06.76-4.16,2.29-1.1,1.53-1.65,3.43-1.65,5.71v9.78h-3.7v-20.45h3.58c0,1.78-.11,3.22-.32,4.32h.08c1.33-3.12,3.72-4.68,7.19-4.68,4.11,0,6.17,2.18,6.17,6.53v14.28h-3.7Z"/>
        <path class="cls-2" d="M476.46,200.64h-13.38c-.12,5,2.04,7.49,6.47,7.49,2.05,0,4-.39,5.85-1.19l.52,2.91c-2.12.84-4.47,1.27-7.07,1.27-6.39,0-9.58-3.5-9.58-10.49,0-3.12.81-5.67,2.43-7.63,1.69-2.04,3.95-3.05,6.79-3.05s4.77.82,6.19,2.47c1.27,1.49,1.91,3.46,1.91,5.93,0,.71-.04,1.47-.12,2.29ZM472.81,198.01c.04-1.65-.36-2.94-1.19-3.88-.8-.92-1.94-1.39-3.4-1.39-2.89,0-4.57,1.75-5.04,5.26h9.62Z"/>
        <path class="cls-2" d="M503.02,210.77v-13.16c0-3.08-1.17-4.62-3.5-4.62-1.67,0-3.06.76-4.16,2.29-1.1,1.53-1.65,3.43-1.65,5.71v9.78h-3.7v-20.45h3.58c0,1.78-.11,3.22-.32,4.32h.08c1.33-3.12,3.72-4.68,7.19-4.68,4.11,0,6.17,2.18,6.17,6.53v14.28h-3.7Z"/>
        <path class="cls-2" d="M526.23,210.77c0-1.78.11-3.22.34-4.32h-.08c-1.34,3.12-3.74,4.68-7.21,4.68-4.08,0-6.13-2.18-6.13-6.53v-14.28h3.66v13.18c0,3.07,1.17,4.6,3.5,4.6,1.69,0,3.08-.76,4.18-2.29,1.08-1.51,1.63-3.41,1.63-5.69v-9.8h3.7v20.45h-3.58Z"/>
        <path class="cls-2" d="M562.27,210.77v-13.12c0-3.11-1.11-4.66-3.33-4.66-1.54,0-2.86.72-3.96,2.17-1.18,1.54-1.77,3.51-1.77,5.91v9.7h-3.66v-13.12c0-3.11-1.11-4.66-3.34-4.66-1.58,0-2.93.76-4.04,2.27-1.12,1.55-1.69,3.49-1.69,5.81v9.7h-3.7v-20.45h3.58c0,1.73-.09,3.17-.28,4.32l.04.04c1.3-3.15,3.67-4.72,7.11-4.72,1.92,0,3.38.56,4.38,1.69.72.82,1.14,1.8,1.27,2.95,1.38-3.09,3.71-4.64,6.99-4.64,4.06,0,6.09,2.24,6.09,6.71v14.1h-3.7Z"/>
        <path class="cls-2" d="M588.25,200.64h-13.38c-.12,5,2.04,7.49,6.47,7.49,2.05,0,4-.39,5.85-1.19l.52,2.91c-2.12.84-4.47,1.27-7.07,1.27-6.39,0-9.58-3.5-9.58-10.49,0-3.12.81-5.67,2.43-7.63,1.69-2.04,3.95-3.05,6.79-3.05s4.77.82,6.19,2.47c1.27,1.49,1.91,3.46,1.91,5.93,0,.71-.04,1.47-.12,2.29ZM584.59,198.01c.04-1.65-.36-2.94-1.19-3.88-.8-.92-1.94-1.39-3.4-1.39-2.89,0-4.57,1.75-5.04,5.26h9.62ZM579.93,187.4l-2.01-1.57,4.86-6.29,2.51,1.97-5.36,5.89Z"/>
        <path class="cls-2" d="M603.86,193.61c-4.26-.76-6.39,2.21-6.39,8.92v8.24h-3.7v-20.45h3.58c0,1.69-.15,3.31-.44,4.86h.08c1.17-3.84,3.51-5.59,7.03-5.22l-.16,3.66Z"/>
        <path class="cls-2" d="M612.14,185.56c-.48.46-1.06.68-1.75.68s-1.27-.23-1.75-.68c-.48-.46-.72-1.02-.72-1.69s.24-1.26.72-1.73c.48-.47,1.06-.7,1.75-.7s1.27.23,1.75.7c.48.47.72,1.04.72,1.73s-.24,1.22-.72,1.69ZM608.54,210.77v-20.45h3.7v20.45h-3.7Z"/>
        <path class="cls-2" d="M631.52,220.94v-10.63c0-1.47.1-2.69.3-3.66l-.08-.04c-1.21,3.01-3.43,4.52-6.67,4.52-5.05,0-7.57-3.2-7.57-9.58,0-3.6.95-6.43,2.85-8.48,1.92-2.05,4.56-3.07,7.94-3.07,2.16,0,4.46.19,6.91.56v30.38h-3.68ZM631.52,193.37c-1.17-.28-2.38-.42-3.66-.42-4.3,0-6.45,2.75-6.45,8.24,0,4.61,1.49,6.91,4.48,6.91,1.73,0,3.13-.87,4.2-2.61.95-1.54,1.43-3.32,1.43-5.32v-6.79Z"/>
        <path class="cls-2" d="M654.93,210.77c0-1.78.11-3.22.34-4.32h-.08c-1.34,3.12-3.74,4.68-7.21,4.68-4.08,0-6.13-2.18-6.13-6.53v-14.28h3.66v13.18c0,3.07,1.17,4.6,3.5,4.6,1.69,0,3.08-.76,4.18-2.29,1.08-1.51,1.63-3.41,1.63-5.69v-9.8h3.7v20.45h-3.58Z"/>
        <path class="cls-2" d="M680.87,200.64h-13.38c-.12,5,2.04,7.49,6.47,7.49,2.05,0,4-.39,5.85-1.19l.52,2.91c-2.12.84-4.47,1.27-7.07,1.27-6.39,0-9.58-3.5-9.58-10.49,0-3.12.81-5.67,2.43-7.63,1.69-2.04,3.95-3.05,6.79-3.05s4.77.82,6.19,2.47c1.27,1.49,1.91,3.46,1.91,5.93,0,.71-.04,1.47-.12,2.29ZM677.21,198.01c.04-1.65-.36-2.94-1.19-3.88-.8-.92-1.94-1.39-3.4-1.39-2.89,0-4.57,1.75-5.04,5.26h9.62Z"/>
      </g>
      <path class="cls-2" d="M192.66,0H36.53C16.36,0,0,16.36,0,36.53v164.62c0,21.46,17.4,38.86,38.86,38.86h151.48c21.46,0,38.86-17.4,38.86-38.86V36.53c0-20.18-16.36-36.53-36.53-36.53ZM162.97,220.9h-28.64v-28.64h28.64v28.64ZM211.97,206.83c0,7.77-6.3,14.07-14.07,14.07h-14.56v-28.64h28.64v14.56ZM211.97,172.74l-38.95-20.59V56.29l-38.69-16.04v132.49l-38.95-24.97v-77.11l-38.69-16.04v94.03H17.74V42.04c0-14.57,11.81-26.38,26.38-26.38h141.47c14.57,0,26.38,11.81,26.38,26.38v130.7Z"/>
      <g>
        <path class="cls-1" d="M313.99,155.55h-31.24V39.19h31.4l32.04,55.31,32.04-55.31h31.56v116.35h-31.4v-62.64l-24.23,42.08h-15.94l-24.23-42.08v62.64Z"/>
        <path class="cls-1" d="M464.13,157.78c-9.99,0-18.86-2.34-26.62-7.01-7.76-4.67-13.34-11-16.74-18.97l25.98-11.95c1.28,2.34,3.48,4.36,6.61,6.06,3.13,1.7,6.46,2.55,9.96,2.55,4.14,0,7.44-.98,9.88-2.95,2.44-1.96,3.67-4.49,3.67-7.57,0-7.33-5.42-11-16.26-11h-6.69v-27.1h7.33c3.08,0,5.76-.61,8.05-1.83,2.28-1.22,3.43-3.16,3.43-5.82,0-2.12-.96-3.85-2.87-5.18-1.91-1.33-4.25-1.99-7.01-1.99-4.36,0-7.71,1.43-10.04,4.3l-27.1-10.36c2.76-6.48,7.68-11.82,14.74-16.02,7.07-4.2,14.69-6.3,22.87-6.3,10.94,0,20.13,2.79,27.57,8.37,7.44,5.58,11.16,13.89,11.16,24.94,0,9.03-4.09,16.58-12.27,22.63,10.94,6.48,16.42,15.73,16.42,27.73,0,11.26-3.93,20.32-11.79,27.17-7.86,6.85-17.96,10.28-30.28,10.28Z"/>
        <path class="cls-1" d="M548.77,155.55h-29.17v-87.66h26.46l1.91,10.04c2.34-3.72,5.39-6.61,9.17-8.69,3.77-2.07,7.78-3.11,12.03-3.11,10.62,0,18.59,4.09,23.91,12.27,2.44-3.72,5.6-6.69,9.48-8.93,3.88-2.23,7.99-3.35,12.35-3.35,10.73,0,19.1,3.56,25.1,10.68,6,7.12,9,18.28,9,33.47v45.27h-29.33v-45.27c0-5.21-1.01-9.08-3.03-11.63-2.02-2.55-4.46-3.83-7.33-3.83s-5.34,1.28-7.41,3.83c-2.07,2.55-3.11,6.43-3.11,11.63v45.27h-29.17v-45.27c0-5.21-1.01-9.08-3.03-11.63-2.02-2.55-4.46-3.83-7.33-3.83s-5.47,1.3-7.49,3.9c-2.02,2.61-3.03,6.56-3.03,11.88v44.95Z"/>
        <path class="cls-1" d="M692.06,155.55h-29.17V31.23h29.17v124.32Z"/>
        <path class="cls-1" d="M718.03,192.84c-6.69,0-12.75-1.06-18.17-3.19l7.97-25.66c2.55.85,5.47,1.28,8.77,1.28,3.61,0,6.93-1.12,9.96-3.35,3.03-2.23,5.13-5.69,6.3-10.36l-32.36-83.68h31.4l13.71,43.51,13.07-43.51h31.08l-28.21,87.66c-4.36,13.49-10.12,23.08-17.29,28.77-7.17,5.68-15.91,8.53-26.22,8.53Z"/>
      </g>
    </g>
  </g>
</svg>