<svg width="120" height="120" viewBox="0 0 120 120" fill="none" xmlns="http://www.w3.org/2000/svg">
  <path d="M60 10C32.386 10 10 32.386 10 60C10 87.614 32.386 110 60 110C87.614 110 110 87.614 110 60C110 32.386 87.614 10 60 10Z" fill="#443CEF"/>
  <path d="M60 25C41.193 25 25 41.193 25 60C25 78.807 41.193 95 60 95C78.807 95 95 78.807 95 60C95 41.193 78.807 25 60 25Z" fill="white"/>
  <path d="M60 40C49.507 40 41 48.507 41 59C41 69.493 49.507 78 60 78C70.493 78 79 69.493 79 59C79 48.507 70.493 40 60 40Z" fill="#443CEF"/>
</svg>